/* XPM */
static char * exit_water_xpm[] = {
"64 64 12 1",
" 	c #18C641",
".	c #A56B0C",
"+	c #A86900",
"@	c #FFFFFF",
"#	c #13C2EC",
"$	c #050101",
"%	c #20C832",
"&	c #AEF500",
"*	c #0F8000",
"=	c #A8F51F",
"-	c #93F800",
";	c #0B7F12",
"                                                                ",
"          .                         .                           ",
"      .  ..    ..     ..    .      ... .....                .   ",
"   ...........................................................  ",
"  ...++++++++++++++++++++++++++++++++++++++++++++++++++++++++   ",
"   .+++++++++++++++++++++++++++++++++++++++++++++++++++++++++   ",
"   ++++++++++++++++++++++++++++++++++++++++++++++++++++++++++   ",
"   ++++++++++++++++++++++++++++++++++++++++++++++++++++++++++   ",
"   ++++++++++++++++++++++++++++++++++++++++++++++++++++++++++.. ",
"  .+++++++@@++++++++++++++++@@@@@++++++++++++++++++++++++++++.  ",
"  .+++++++@@@@@@@@@@@@++++++####@@@@@@@+++++@@@@@@+++@@@@++++   ",
"   +++++++@@@@#######@@+++@@@#########@@+++######@++@##@@++++   ",
"   ++++@@@@@###########@@@@#######################@@####@++++   ",
"   ++++@################################################@++++.. ",
"   ++++@#################################################++++.  ",
"  .++++@#####################@@@@@@@#####################++++.  ",
" ..++++##################################################++++   ",
"  .++++##################################################++++   ",
"   ++++##################################################++++   ",
"   ++++##################################################++++   ",
"   ++++##################################################++++...",
"   ++++##################################################++++   ",
" ..++++##################################################++++   ",
"  .++++####@@############################################++++   ",
"  .++++#@@@##############################################++++.. ",
"   ++++##################################################++++...",
"   ++++##################################################++++.  ",
"   ++++##################################################++++   ",
"   ++++##################################################++++   ",
"...++++##################################################++++   ",
"  .++++##################################################++++.. ",
"  $++++#########################################@@@#####@++++$$ ",
"  .++++#################################################@++++.  ",
"  .++++##################################################++++.  ",
"  .++++##################################################++++   ",
"   ++++##################################################++++   ",
"   ++++##################################################++++   ",
" ..++++##################################################++++   ",
"  .++++##################################################++++  .",
"   ++++##################################################++++ . ",
"   ++++#####################@############################++++ . ",
" . ++++###########@@@@@##@@@@############################++++.. ",
" ..++++##################################################++++.  ",
"   ++++##################################################++++   ",
"   ++++##################################################++++   ",
"   ++++##################################################++++.. ",
" ..++++##################################################++++.. ",
"   ++++##################################################++++   ",
"   ++++##################################################++++   ",
"   ++++##################################################++++ . ",
"   ++++##################################################++++.. ",
"   ++++##########################################@@@@####++++.  ",
"   ++++##################################################++++   ",
"   ++++##################################################++++   ",
"   ++++##################################################++++   ",
" ..++++###########################################%######++++   ",
" ..++++############################################%#####++++.  ",
"   ++++#########################%###################&&###++++.. ",
"   ++++####%%######%%%%#########%###################%&###++++ . ",
"   ++++@##%%%%$$$$%%%%%%$$$$%%##%####%########%######&*##++++   ",
"         %%  %%   %   %%%   %  %     %        %       *%        ",
"        %%&=- %%%%          %        %                 %%       ",
"        % ;--                                                   ",
"                                                                "};
