/* XPM */
static char * player_capy_xpm[] = {
"64 64 8 1",
" 	c #20C832",
".	c #5E3012",
"+	c #E7A875",
"@	c #C96C20",
"#	c #F0C09F",
"$	c #4E2A11",
"%	c #633D2D",
"&	c #E0A469",
"                                                                ",
"                                                                ",
"                                                                ",
"                                                                ",
"                                                                ",
"                                                                ",
"                                                                ",
"                                                                ",
"                                                                ",
"                                                                ",
"                                                                ",
"                                                                ",
"                                                                ",
"                                                                ",
"                                                                ",
"                                                                ",
"                                                                ",
"                                                                ",
"                                                                ",
"                                                                ",
"                                                                ",
"                     ......                                     ",
"                     ......                                     ",
"                     ......                                     ",
"                  ...++++++.....................                ",
"                  ...++++++.....................                ",
"                  ...++++++.....................                ",
"                  ...@@@@@@###############@@@@@@...             ",
"                  ...@@@@@@###############@@@@@@...             ",
"                  ...@@@@@@###############@@@@@@...             ",
"                     ...@@@###$$$$$$######@@@@@@...             ",
"                     ...@@@###$$$$$$######@@@@@@...             ",
"                     ...@@@###$$$$$$######@@@@@@...             ",
"               .........%%%##################@@@...             ",
"               .........%%%##################@@@...             ",
"               .........%%%##################@@@...             ",
"            ...&&&&&&&&&########################...             ",
"            ...&&&&&&&&&########################...             ",
"            ...&&&&&&&&&########################...             ",
"         ...&&&&&&@@@&&&########################...             ",
"         ...&&&&&&@@@&&&########################...             ",
"         ...&&&&&&@@@&&&########################...             ",
"         ...&&&&&&&&&@@@###############.........                ",
"         ...&&&&&&&&&@@@###############.........                ",
"         ...&&&&&&&&&@@@###############.........                ",
"         ...&&&&&&&&&@@@############...                         ",
"         ...&&&&&&&&&@@@############...                         ",
"         ...&&&&&&&&&@@@############...                         ",
"         ...&&&&&&@@@@@@############...                         ",
"         ...&&&&&&@@@@@@############...                         ",
"         ...&&&&&&@@@@@@############...                         ",
"            ...&&&&&&.........@@@###...                         ",
"            ...&&&&&&.........@@@###...                         ",
"            ...&&&&&&.........@@@###...                         ",
"                                                                ",
"                                                                ",
"                                                                ",
"                                                                ",
"                                                                ",
"                                                                ",
"                                                                ",
"                                                                ",
"                                                                ",
"                                                                "};
