/* XPM */
static char * wall_grass_xpm[] = {
"64 64 17 1",
" 	c #0AC44B",
".	c #A4EA00",
"+	c #87F800",
"@	c #8EEC00",
"#	c #007E23",
"$	c #007C30",
"%	c #0F3325",
"&	c #007A39",
"*	c #8AB01F",
"=	c #5FC33B",
"-	c #A3F540",
";	c #B3E820",
">	c #024002",
",	c #048004",
"'	c #95C21B",
")	c #00C834",
"!	c #003424",
"                                                                ",
"                                                                ",
"                                                                ",
"                        ...                                     ",
"                        ...                                     ",
"                        ...                                     ",
"                     ++++++         @@@@@@                      ",
"                     ++++++         @@@@@@                      ",
"                     ++++++         @@@@@@                      ",
"         ...+++      +++###      ++++++###                      ",
"         ...+++      +++###      ++++++###                      ",
"         ...+++      +++###      ++++++###                      ",
"         $$$++++++                                     ...      ",
"         $$$++++++                                     ...      ",
"         $$$++++++                                     ...      ",
"                                                       ###      ",
"                                                       ###      ",
"                                                       ###      ",
"                     %%%%&&&&&&&&&&&&&%%%%                ***   ",
"                     %%%%&&&&&&&&&&&&&%%%%                ***   ",
"                     %%%%&&&&&&&&&&&&&%%%%                ***   ",
"                  %%%&&&======---======&&&%%%                   ",
"                  %%%&&&======---======&&&%%%                   ",
"                  %%%&&&======---======&&&%%%                   ",
"               %%%&&&===  -------------===&&&%%%                ",
"               %%%&&&===---------------===&&&%%%                ",
"               %%%&&&===---------------===&&&%%%                ",
"            %%%&&&===------------;;;------===&&&%%%             ",
"            %%%&&&===------------;;;------===&&&%%%             ",
"            %%%&&&===------------;;;------===&&&%%%             ",
"         %%%&&&======---;;;---------------======&&&%%%          ",
"         %%%&&&======---;;;---------------======&&&%%%          ",
"         %%%&&&======---;;;---------------======&&&%%%          ",
"         &&&===>>>------;;;;;;---------------===&&&%%%          ",
"         &&&===>>>------;;;;;;---------------===&&&%%%          ",
"         &&&===>>>------;;;;;;---------------===&&&%%%          ",
"         %%%&&&   ---,,,'''''''''''';;;----=====&&&%%%          ",
"         %%%&&&   ,,,,,,'''''''''''';;;----=====&&&%%%          ",
"         %%%&&&   ,,,,,,'''''''''''';;;----=====&&&%%%          ",
"         %%%&&&&&&,,,,,,'''======='''==***&&&%%%%%%%%%          ",
"         %%%&&&&&&,,,,,,'''======='''==***&&&%%%%%%%%%          ",
"         %%%&&&&&&,,,,,,'''======='''==***&&&%%%%%%%%%          ",
"            %%%&&&,,,   ======...======   &&&&&&%%%             ",
"            %%%&&&,,,&&&=====.......===   &&&&&&%%%             ",
"            %%%&&&,,,&&&=====.......===   &&&&&&%%%             ",
"         )))%%%%%%&&&&&&%%%&&.......&&&&&&&&&%%%%%%             ",
"         )))%%%%%%&&&&&&%%%&&,,,,,$$&&&&&&&&&%%%%%%             ",
"         )))%%%%%%&&&&&&%%%&&,,,,,$$&&&&&&&&&%%%%%%             ",
"            %%%%%%%%%&&&&&&&&&!!!$$$&&&%%%%%%%%%                ",
"            %%%%%%%%%%%%&&&&&&!!!$$$&&&%%%%%%%%%                ",
"            %%%%%%%%%%%%&&&&&&!!!$$$&&&%%%%%%%%%                ",
"               %%%%%%%%%&&&%%%%%%$$$%%%%%%%%%                   ",
"               %%%%%%%%%&&&%%%%%%$$$%%%%%%%%%                   ",
"               %%%%%%%%%&&&%%%%%%$$$%%%%%%%%%                   ",
"                     %%%%%%%%%%%%%%%%%%              ------     ",
"                     %%%%%%%%%%%%%%%%%%              ------     ",
"                     %%%%%%%%%%%%%%%%%%              ------     ",
"                                                  ++++++###     ",
"                                                  ++++++###     ",
"                                                  ++++++###     ",
"                                                                ",
"                                                                ",
"                                                                ",
"                                                                "};
