/* XPM */
static char * coin_apple_xpm[] = {
"64 64 11 1",
" 	c #20C832",
".	c #93F800",
"+	c #0B7F12",
"@	c #000000",
"#	c #FF0000",
"$	c #FF1E1E",
"%	c #C30000",
"&	c #FFD2D2",
"*	c #AEF500",
"=	c #0F8000",
"-	c #A8F51F",
"                                                                ",
"                                                                ",
"                                                                ",
"                                                                ",
"                                                                ",
"                                                                ",
"                                                                ",
"                                                                ",
"                                                                ",
"                                                                ",
"                                                                ",
"                                                                ",
"                                                                ",
"                                                                ",
"                                                                ",
"                                                                ",
"                                                                ",
"                ..                                              ",
"                 ++                                             ",
"                                                                ",
"                                 @                              ",
"                                @                               ",
"                                @                               ",
"                            @@@ @ @@@                           ",
"                           @#$%@@@%##@                          ",
"                          @%###%%%####@                         ",
"                         @%#########&##@                        ",
"                         @%##########&#@                        ",
"                         @%############@                        ",
"                         @%############@                        ",
"                         @%############@                        ",
"                         @%############@                        ",
"                          @%##########@                         ",
"                          @%##########@                         ",
"                           @%%#######@                          ",
"                            @@%%%%%@@                           ",
"                              @@@@@                             ",
"                                                                ",
"                                                                ",
"                                                                ",
"                                                     **         ",
"                                                    =**         ",
"                                                                ",
"                                                                ",
"                                                                ",
"                                                                ",
"                                                                ",
"                                                                ",
"                                                                ",
"                                                                ",
"                                                                ",
"                                                                ",
"             -.                                                 ",
"             +**                                                ",
"                                                                ",
"                                                                ",
"                                                                ",
"                                                                ",
"                                                                ",
"                                                                ",
"                                                                ",
"                                                                ",
"                                                                ",
"                                                                "};
