/* XPM */
static char *_29bad7525924784d6efae715d455d063Rrrp9hIIv9dmUW1[] = {
/* columns rows colors chars-per-pixel */
"64 64 27 1 ",
"  c None",
". c black",
"X c #0F0606",
"o c #0B050A",
"O c #3A1718",
"+ c #3A172C",
"@ c #361630",
"# c #353535",
"$ c #491D1E",
"% c #451C22",
"& c #572422",
"* c #642F28",
"= c #703427",
"- c #7F3A2D",
"; c #634748",
": c #A55F0C",
"> c #AC6B0C",
", c #BE7506",
"< c #8F452A",
"1 c #9E5127",
"2 c #8D4131",
"3 c #A45D27",
"4 c #CC7C0A",
"5 c #8D5E54",
"6 c #BE6947",
"7 c #D6A506",
"8 c #E4AC0A",
/* pixels */
"                                                                ",
"                                                                ",
"                                                                ",
"                                                                ",
"                                                                ",
"                                                                ",
"               .oo           oooo           oo                  ",
"               .@@o         o@@@@o         o@@.                 ",
"               .@@@ooooooooo@@@@@@ooooooooo@@@.                 ",
"               .++@@@@@@@@@@@++++@@@@@@@@@@@++.                 ",
"               .**+@@@@@@@@@+****+@@@@@@@@@+**.                 ",
"               .66*+++++++++*6666*+++++++++*66.                 ",
"               .226&&&&&&&&&622226&&&&&&&&&622.                 ",
"               .------------------------------.                 ",
"               .&&&&&&&&&&&&&&&&&&&&&&&&&&&&&&.                 ",
"               X------------------------------X                 ",
".XXXXXXXXXXXXXX$$$%%%%%%%%%%%%%%%%%%%%%%%%%%$$$XXXXXXXXXXXXXXX. ",
".$$$$$$$$$$$$$$$$$@@@@@@@@@@@@@@@@@@@@@@@@@@$$$$$$$$$$$$$$$$$$. ",
".$$$$$$$$$$$$$$$$$@@@@@@@@@@@@@@@@@@@@@@@@@@$$$$$$$$$$$$$$$$$$. ",
".$$$$$$$$$$$$$$$$$@@@@@@@@@@@@@@@@@@@@@@@@@@$$$$$$$$$$$$$$$$$$. ",
".$$$$$$$$$$$$$$$$$@@@@@@@@@@@@@@@@@@@@@@@@@@$$$$$$$$$$$$$$$$$$. ",
".$$$$$$$$$$$$$$$$$@@@@@@@@@@@@@@@@@@@@@@@@@@$$$$$$$$$$$$$$$$$$. ",
".$$$$$$$$$$$$$$$$$@@@@@@@@@@@@@@@@@@@@@@@@@@$$$$$$$$$$$$$$$$$$. ",
".$$$$$$$$$$$$$$$$$@@@@@@@@@@@@@@@@@@@@@@@@@@$$$$$$$$$$$$$$$$$$. ",
".$$$$$$$$$$$$$$$$$@@@@@@@@@@@@@@@@@@@@@@@@@@$$$$$$$$$$$$$$$$$$. ",
".$$$$$$$$$$$$$$$$$@@@@@@@@@@@@@@@@@@@@@@@@@@$$$$$$$$$$$$$$$$$$. ",
".$$$$$$$$$$$$$$$$$@@@@@@@@@@@@@@@@@@@@@@@@@@$$$$$$$$$$$$$$$$$$. ",
".$$$$$$$$$$$$$$$$$@@@@@@@@@@@@@@@@@@@@@@@@@@$$$$$$$$$$$$$$$$$$. ",
".$$$$$$$$$$$$$$$$$@@@@@@@@@@@@@@@@@@@@@@@@@@$$$$$$$$$$$$$$$$$$. ",
".$$$$$$$$$$$$$$$$$@@@@@@@@@@@@@@@@@@@@@@@@@@$$$$$$$$$$$$$$$$$$. ",
".$$$$$$$$$$$$$$$$$@@@@@@@@@@@@@@@@@@@@@@@@@@$$$$$$$$$$$$$$$$$$. ",
".$$$$$$$$$$$$$$$$$@@@@@@@@@@@@@@@@@@@@@@@@@@$$$$$$$$$$$$$$$$$$. ",
".$$$$$$$$$$$$$$$$$@@@@@@@@@@@@@@@@@@@@@@@@@@$$$$$$$$$$$$$$$$$$. ",
".$$$$$$$$$$$$$$$$$@@@@@@@@@@@@@@@@@@@@@@@@@@$$$$$$$$$$$$$$$$$$. ",
".$$$$$$$$$$$$$$$$$@@@@@@@@@@@@@@@@@@@@@@@@@@$$$$$$$$$$$$$$$$$$. ",
".$$$$$$$$$$$$$$$$$@@@@@@@@@@@@@@@@@@@@@@@@@@$$$$$$$$$$$$$$$$$$. ",
".$$$$$$$$$$$$$$$$$@@@@@@@@@@@@@@@@@@@@@@@@@@$$$$$$$$$$$$$$$$$$. ",
".$$$$$$$$$$$$$$$$$@@@@@@@@@@@@@@@@@@@@@@@@@@$$$$$$$$$$$$$$$$$$. ",
".$$$$$$$$$$$$$$$$$@@@@@@@@@@@@@@@@@@@@@@@@@@$$$$$$$$$$$$$$$$$$. ",
".$$$$$$$$$$$$$$$$$@@@@@@@@@@@@@@@@@@@@@@@@@@$$$$$$$$$$$$$$$$$$. ",
".$$$$$$$$$$$$$$$$$@@@@@@@@@@@@@@@@@@@@@@@@@@$$$$$$$$$$$$$$$$$$. ",
".$$$$$$$$$$$$$$$$$@@@@@@@@@@@@@@@@@@@@@@@@@@$$$$$$$$$$$$$$$$$$. ",
".$$$$$$$$$$$$$$$$$@@@@@@@@@@@@@@@@@@@@@@@@@@$$$$$$$$$$$$$$$$$$. ",
".$$$$$$$$$$$$$$$$$@@@@@@@@@@@@@@@@@@@@@@@@@@$$$$$$$$$$$$$$$$$$. ",
".$$$$$$$$$$$$$$$$$@@@@@@@@@@@@@@@@@@@@@@@@@@$$$$$$$$$$$$$$$$$$. ",
".OOOOOOOOOOOOOOO$$++++++++++++++++++++++++++$$$OOOOOOOOOOOOOOO. ",
"###############.$$**************************$&O################ ",
"               .$$66666666666666666666666666$2.                 ",
"               .$$2221<<<322222222223<<<1222$2.                 ",
"               .$$---,::>7----------7>::,---$-.                 ",
"               .&&&&&&448&&&&&&&&&&&&844&&&&&&.                 ",
"               .-----====================-----.                 ",
"               .&&&$O####################O$&&&.                 ",
"               #555;#                    #;555#                 ",
"                                                                ",
"                                                                ",
"                                                                ",
"                                                                ",
"                                                                ",
"                                                                ",
"                                                                ",
"                                                                ",
"                                                                ",
"                                                                "
};
