/* XPM */
static char *_cb34e31be614800e9ce17a8b818e134iZwwe2cClBgqhF2X[] = {
/* columns rows colors chars-per-pixel */
"64 64 79 1 ",
"  c black",
". c #0F0606",
"X c #0B050A",
"o c #3A1718",
"O c #3A172C",
"+ c #361630",
"@ c #2F2E2F",
"# c #302E32",
"$ c #322F37",
"% c #332F3A",
"& c #353137",
"* c #343434",
"= c #35303A",
"- c #36343A",
"; c #34303E",
": c #38323B",
"> c #383539",
", c #3B363E",
"< c #3C373F",
"1 c #491D1E",
"2 c #451C22",
"3 c #572422",
"4 c #642F28",
"5 c #703427",
"6 c #7F3A2D",
"7 c #373044",
"8 c #383147",
"9 c #39314B",
"0 c #3A304F",
"q c #3C324D",
"w c #3F354C",
"e c #3A2F50",
"r c #3D2F56",
"t c #3E2F5A",
"y c #3B3051",
"u c #3C3053",
"i c #3C3054",
"p c #3F3159",
"a c #413748",
"s c #423453",
"d c #433556",
"f c #443755",
"g c #473950",
"h c #4B3B54",
"j c #40315B",
"k c #44335C",
"l c #47365E",
"z c #483958",
"x c #4D3C58",
"c c #4B385F",
"v c #4F3C5E",
"b c #533E5F",
"n c #533E63",
"m c #4F4E4F",
"M c #565259",
"N c #60454E",
"B c #564064",
"V c #5A4F6E",
"C c #575165",
"Z c #585169",
"A c #5B516D",
"S c #5B4F71",
"D c #5D5172",
"F c #675A70",
"G c #695A74",
"H c #695A78",
"J c #6E5D79",
"K c #A55F0C",
"L c #AC6B0C",
"P c #BE7506",
"I c #8F452A",
"U c #9E5127",
"Y c #8D4131",
"T c #A45D27",
"R c #CC7C0A",
"E c #825758",
"W c #BE6947",
"Q c #D6A506",
"! c #E4AC0A",
/* pixels */
"gggggggggggggggga@@@@@&ggggggggggggggggggggggggggggga@@@@@&ggggg",
"BBBBBBBBBBBBBBBBx@@@@@:BBBBBBBBBBBBBBBBBBBBBBBBBBBBBx@@@@@:BBBBB",
"BBBBnlllcBBBBBBBbga@&ghBBBBBBBBBBBBBBBBBnlllcBBBBBBBbga@&ghBBBBB",
"BBBBntttkBBBBBBBBBx@:BBBBBBBBBBBBBBBBBBBntttkBBBBBBBBBx@:BBBBBBB",
"nlllltttjlcBnlcBBBx@:BBBnlllcBnlllllcBnlltttjlcBnlcBBBx@:BBBnlcB",
"ntttttttttkBntkJJJx@:BBBntttkJHSStttkBntttttSSkBntkBBBx@:BBBntkB",
"lttttyyyutjlltp XXF@:BnfdtttDXXXXZutjllttyyZXXAlltpfzBx@:Bnfdtjl",
"ttttr9990tttttr ++XmMJGCZSSSX++++XZSSSSSVCCX++ tttr9sBx@:Bv90ttt",
"ttty090iitttty0 +++XXXXXXXXX++++++XXXXXXXXX+++ tty09qfw@=fs90yut",
"ttr9990tttttr99 OO+++++++++++OOOO+++++++++++OO tr999997@$999990t",
"yy09990yyyyy099 44O+++++++++O4444O+++++++++O44 y0999997@$999990y",
"999999999999999 WW4OOOOOOOOO4WWWW4OOOOOOOOO4WW 99999997@$9999999",
"999999999999999 YYW333333333WYYYYW333333333WYY 999998%$@#%;99999",
"999999999999999 666666666666666666666666666666 999997@@@@@$99999",
"%%%%%%%%%%%%%%% 333333333333333333333333333333 %%%%%$@@@@@#%%%%%",
"mmmmmmmmmmmmmmm.666666666666666666666666666666.mmmmmmmmmmmmmmmm@",
" ..............11122222222222222222222222222111............... @",
" 11111111111111111++++++++++++++++++++++++++111111111111111111 @",
" 11111111111111111++++++++++++++++++++++++++111111111111111111 @",
" 11111111111111111++++++++++++++++++++++++++111111111111111111 @",
" 11111111111111111++++++++++++++++++++++++++111111111111111111 @",
" 11111111111111111++++++++++++++++++++++++++111111111111111111 @",
" 11111111111111111++++++++++++++++++++++++++111111111111111111 @",
" 11111111111111111++++++++++++++++++++++++++111111111111111111 @",
" 11111111111111111++++++++++++++++++++++++++111111111111111111 @",
" 11111111111111111++++++++++++++++++++++++++111111111111111111 @",
" 11111111111111111++++++++++++++++++++++++++111111111111111111 @",
" 11111111111111111++++++++++++++++++++++++++111111111111111111 @",
" 11111111111111111++++++++++++++++++++++++++111111111111111111 @",
" 11111111111111111++++++++++++++++++++++++++111111111111111111 @",
" 11111111111111111++++++++++++++++++++++++++111111111111111111 @",
" 11111111111111111++++++++++++++++++++++++++111111111111111111 @",
" 11111111111111111++++++++++++++++++++++++++111111111111111111 @",
" 11111111111111111++++++++++++++++++++++++++111111111111111111 @",
" 11111111111111111++++++++++++++++++++++++++111111111111111111 g",
" 11111111111111111++++++++++++++++++++++++++111111111111111111 B",
" 11111111111111111++++++++++++++++++++++++++111111111111111111 B",
" 11111111111111111++++++++++++++++++++++++++111111111111111111 B",
" 11111111111111111++++++++++++++++++++++++++111111111111111111 B",
" 11111111111111111++++++++++++++++++++++++++111111111111111111 B",
" 11111111111111111++++++++++++++++++++++++++111111111111111111 l",
" 11111111111111111++++++++++++++++++++++++++111111111111111111 t",
" 11111111111111111++++++++++++++++++++++++++111111111111111111 t",
" 11111111111111111++++++++++++++++++++++++++111111111111111111 t",
" 11111111111111111++++++++++++++++++++++++++111111111111111111 t",
" ooooooooooooooo11OOOOOOOOOOOOOOOOOOOOOOOOOO111ooooooooooooooo t",
"--------------- 114444444444444444444444444413o----******------y",
"999999999999999 11WWWWWWWWWWWWWWWWWWWWWWWWWW1Y 9997@@@@@$9999999",
"%%%%%%%%%%%%%%% 11YYYUIIITYYYYYYYYYYTIIIUYYY1Y %%%$@@@@@#%%%%%%%",
"@@@@@@@@@@@@@@@ 11666PKKLQ6666666666QLKKP66616 @@@@@@@@@@@@@@@@@",
"gggga@@@@@&gggg 333333RR!333333333333!RR333333 ggggggggggggggggg",
"BBBBx@@@@@:BBBB 666665555555555555555555566666 BBBBBBBBBBBBBBBBB",
"BBBBbga@&ghBBBB 3331o,,<<<<<<<<<<<,>>**>>o1333 BBBnlcBBBBBnlcBBB",
"BBBBBBx@:BBBBBB<EEEN,tkBBBBBBBBBBBBBx@:BB<NEEE<BBBntkBBBBBntkBBB",
"llllcBx@:BnlllcBnlllltjlcBnlllllcBBBx@:BBBnlllcBnlltjlcBnlltjlll",
"ttttkBx@:BntttkBntttttttkBntttttkBBBx@:BBBntttkBntttttkBnttttttt",
"tyutjls@=lltttjllttttyutjllttttyufzBx@:Bnfdyutjlltttttjllttttttt",
"r90ttte@%tttttttttttr90tttttttr999sBx@:Bv9990ttttttttttttttttttt",
"090yyy9@$yyyyyyyyyyy090yyyyyyy0999qfw@=fs9990yyyyyuttttyyyyyyyyy",
"9999997@$9999999999999999999999999997@$999999999990tttr999999999",
"99998%$@#%;999999999999999999999998%$@#%;9999999990yyy0999999999",
"99997@@@@@$999999999999999999999997@@@@@$99999999999999999999999",
"%%%%$@@@@@#%%%%%%%%%%%%%%%%%%%%%%%$@@@@@#%%%%%%%%%%%%%%%%%%%%%%%",
"@@@@@@@@@@@@@@@@@@@@@@@@@@@@@@@@@@@@@@@@@@@@@@@@@@@@@@@@@@@@@@@@"
};
