/* XPM */
static char *_bc67c94c08142e9c56114805f29b705bfuVRo9kX3ROdAHb[] = {
/* columns rows colors chars-per-pixel */
"64 64 37 1 ",
"  c #2F2E2F",
". c #302E32",
"X c #312F36",
"o c #332F3A",
"O c #353137",
"+ c #343038",
"@ c #34303E",
"# c #38323B",
"$ c #373044",
"% c #383147",
"& c #39314B",
"* c #3A304F",
"= c #3C324D",
"- c #3F354C",
"; c #3A2F50",
": c #3D2F56",
"> c #3E2F5A",
", c #3B3051",
"< c #3C3053",
"1 c #3C3054",
"2 c #3F3159",
"3 c #413748",
"4 c #403551",
"5 c #433556",
"6 c #443755",
"7 c #473950",
"8 c #4B3B54",
"9 c #40315B",
"0 c #44335C",
"q c #47365E",
"w c #483958",
"e c #4D3C58",
"r c #4B385F",
"t c #4F3C5E",
"y c #533E5F",
"u c #533E63",
"i c #564064",
/* pixels */
"77777777777777773     O777777777777777777777777777773     O77777",
"iiiiiiiiiiiiiiiie     #iiiiiiiiiiiiiiiiiiiiiiiiiiiiie     #iiiii",
"iiiiuqqqriiiiiiiy73 O78iiiiiiiiiiiiiiiiiuqqqriiiiiiiy73 O78iiiii",
"iiiiu>>>0iiiiiiiiie #iiiiiiiiiiiiiiiiiiiu>>>0iiiiiiiiie #iiiiiii",
"uqqqq>>>9qriuqriiie #iiiuqqqriuqqqqqriuqq>>>9qriuqriiie #iiiuqri",
"u>>>>>>>>>0iu>0iiie #iiiu>>>0iu>>>>>0iu>>>>>>>0iu>0iiie #iiiu>0i",
"q>>>>,,,<>9qq>26wie #iu65>>>9qq>>,<>9qq>>,,,,,1qq>26wie #iu65>9q",
">>>>:&&&*>>>>>:&4ie #it&*>>>>>>>:&*>>>>>:&&&&&*>>>:&4ie #it&*>>>",
">>>,*&*11>>>>,*&=6- +64&*,<>>>>,*&*,<>>>>111111>>,*&=6- +64&*,<>",
">>:&&&*>>>>>:&&&&&$ X&&&&&*>>>:&&&&&*>>>>>>>>>>>:&&&&&$ X&&&&&*>",
",,*&&&*,,,,,*&&&&&$ X&&&&&*,,,*&&&&&*,,,,,<>>>>,*&&&&&$ X&&&&&*,",
"&&&&&&&&&&&&&&&&&&$ X&&&&&&&&&&&&&&&&&&&&&*>>>:&&&&&&&$ X&&&&&&&",
"&&&&&&&&&&&&&&&&%oX .o@&&&&&&&&&&&&&&&&&&&*,,,*&&&&&%oX .o@&&&&&",
"&&&&&&&&&&&&&&&&$     X&&&&&&&&&&&&&&&&&&&&&&&&&&&&&$     X&&&&&",
"ooooooooooooooooX     .oooooooooooooooooooooooooooooX     .ooooo",
"                                                                ",
"  O7777777777777777777777777773     O777777777777777777777773   ",
"  #iiiiiiiiiiiiiiiiiiiiiiiiiiie     #iiiiiiiiiiiiiiiiiiiiiiie   ",
"O78iiiuqriiiiiiiiiiiiiiiuqriiiy73 O78iiiiiiiiiuqriiiiiiiiiiiy73 ",
"#iiiiiu>0iiiiiiiiiiiiiiiu>0iiiiie #iiiiiiiiiiiu>0iiiiiiiiiiiiie ",
"#iiiuqq>9qqqriuqqqqqriuqq>9qriiie #iiiuqqqriuqq>9qqqriuqqqriiie ",
"#iiiu>>>>>>>0iu>>>>>0iu>>>>>0iiie #iiiu>>>0iu>>>>>>>0iu>>>0iiie ",
"#iuqq>>>>>>>9qq>>>>>265>>>>>9qrie #iuqq>>>9qq>>,<>>>265>>>9qrie ",
"#iu>>>>>>>>>>>>>>>>>:&*>>>>>>>0ie #iu>>>>>>>>>:&*>>>:&*>>>>>0ie ",
"+65>>>>>>>>>>>>,,,<>>1<,<>>>>>26- +65>>>>>>>>,*&*>>>>1<,<>>>26- ",
"X&*>>>>>>>>>>>:&&&*>>>:&*>>>>>:&$ X&*>>>>>>>:&&&*>>>>>:&*>>>:&$ ",
"X&*,<>>>>>>>>,*&*11>>>:&*,<>>,*&$ X&*,<>>,,,*&*11>>,<>>11>>,*&$ ",
"X&&&*>>>>>>>:&&&*>>>>>:&&&*>:&&&$ X&&&*>:&&&&&*>>>:&*>>>>>:&&&$ ",
"X&&&*,<>>,,,*&&&*,<>>,*&&&*,*&&&$ X&&&*,*&&&&&*,,,*&*,<>>,*&&&$ ",
"X&&&&&*>:&&&&&&&&&*>:&&&&&&&&&&&$ X&&&&&&&&&&&&&&&&&&&*>:&&&&&$ ",
".o@&&&*,*&&&&&&&&&*,*&&&&&&&&&%oX .o@&&&&&&&&&&&&&&&&&*,*&&&%oX ",
"  X&&&&&&&&&&&&&&&&&&&&&&&&&&&$     X&&&&&&&&&&&&&&&&&&&&&&&$   ",
"  .oooooooooooooooooooooooooooX     .oooooooooooooooooooooooX   ",
"                                                                ",
"777777777777777777773     O777777777777777777777773     O7777777",
"iiiiiiiiiiiiiiiiiiiie     #iiiiiiiiiiiiiiiiiiiiiiie     #iiiiiii",
"iiiiiiuqriiiiiiiiiiiy73 O78iiiiiiiiiuqriiiiiuqriiiy73 O78iiiiiii",
"iiiiiiu>0iiiiiiiiiiiiie #iiiiiiiiiiiu>0iiiiiu>0iiiiie #iiiiiiiii",
"uqqqqqq>9qqqriuqqqriiie #iiiuqqqriuqq>9qriuqq>9qriiie #iiiuqqqri",
"u>>>>>>>>>>>0iu>>>0iiie #iiiu>>>0iu>>>>>0iu>>>>>0iiie #iiiu>>>0i",
"q>>>>>>,<>>,1qq>>>26wie #iu65>>>9qq>>>>>265>>>>>26wie #iu65>>>9q",
">>>>>>:&*>:&*>>>>>:&4ie #it&*>>>>>>>>>>>:&*>>>>>:&4ie #it&*>>>>>",
">>>>>,*&*>>11>>>>,*&=6- +64&*,<>>,,,<>>>>11>>>>,*&=6- +64&*,<>>>",
">>>>:&&&*>>>>>>>:&&&&&$ X&&&&&*>:&&&*>>>>>>>>>:&&&&&$ X&&&&&*>>>",
">,,,*&&&*,,,<>>,*&&&&&$ X&&&&&*,*&&&*,,,,,<>>,*&&&&&$ X&&&&&*,<>",
":&&&&&&&&&&&*>:&&&&&&&$ X&&&&&&&&&&&&&&&&&*>:&&&&&&&$ X&&&&&&&*>",
"*&&&&&&&&&&&*,*&&&&&%oX .o@&&&&&&&&&&&&&&&*,*&&&&&%oX .o@&&&&&*,",
"&&&&&&&&&&&&&&&&&&&&$     X&&&&&&&&&&&&&&&&&&&&&&&$     X&&&&&&&",
"ooooooooooooooooooooX     .oooooooooooooooooooooooX     .ooooooo",
"                                                                ",
"77773     O777777777777777777777773     O77777777777777777777777",
"iiiie     #iiiiiiiiiiiiiiiiiiiiiiie     #iiiiiiiiiiiiiiiiiiiiiii",
"iiiiy73 O78iiiiiiiiiuqriiiiiiiiiiiy73 O78iiiiiiiiiuqriiiiiuqriii",
"iiiiiie #iiiiiiiiiiiu>0iiiiiiiiiiiiie #iiiiiiiiiiiu>0iiiiiu>0iii",
"qqqqrie #iuqqqriuqqqq>9qriuqqqqqriiie #iiiuqqqriuqq>9qriuqq>9qqq",
">>>>0ie #iu>>>0iu>>>>>>>0iu>>>>>0iiie #iiiu>>>0iu>>>>>0iu>>>>>>>",
">,<>9q4 +qq>>>9qq>>>>,<>9qq>>>>,<6wie #iu65,<>9qq>>>>>9qq>>>>>>>",
":&*>>>; o>>>>>>>>>>>:&*>>>>>>>:&&&4ie #it&&&*>>>>>>>>>>>>>>>>>>>",
"*&*,,,& X,,,,,,,,,,,*&*,,,,,,,*&&&=6- +64&&&*,,,,,<>>>>,,,,,,,,,",
"&&&&&&$ X&&&&&&&&&&&&&&&&&&&&&&&&&&&$ X&&&&&&&&&&&*>>>:&&&&&&&&&",
"&&&&%oX .o@&&&&&&&&&&&&&&&&&&&&&&&%oX .o@&&&&&&&&&*,,,*&&&&&&&&&",
"&&&&$     X&&&&&&&&&&&&&&&&&&&&&&&$     X&&&&&&&&&&&&&&&&&&&&&&&",
"ooooX     .oooooooooooooooooooooooX     .ooooooooooooooooooooooo",
"                                                                "
};
