/* XPM */
static char *ab9b2ff69b384ecfebeebe6d8646a624QLpPcOu1ZhLxAUkR[] = {
/* columns rows colors chars-per-pixel */
"64 64 113 2 ",
"   c #020103",
".  c #0F0407",
"X  c gray4",
"o  c gray5",
"O  c #180000",
"+  c #0D0B10",
"@  c #0F0E10",
"#  c #120B11",
"$  c #130E16",
"%  c #19131D",
"&  c #280606",
"*  c #370000",
"=  c #370406",
"-  c #210B16",
";  c #1B1723",
":  c #1E1623",
">  c #1F1824",
",  c #2E1427",
"<  c #281E2F",
"1  c #2F2E2F",
"2  c #252031",
"3  c #2E2331",
"4  c #2C263B",
"5  c #302E32",
"6  c #312F36",
"7  c #332F3A",
"8  c #35283E",
"9  c #353137",
"0  c #343038",
"q  c #34303E",
"w  c #38323B",
"e  c #460000",
"r  c #480000",
"t  c #520000",
"y  c #560000",
"u  c #5A0000",
"i  c #620000",
"p  c #660000",
"a  c #700000",
"s  c #740000",
"d  c #7D0000",
"f  c #492929",
"g  c #583030",
"h  c #342740",
"j  c #342746",
"k  c #302940",
"l  c #342D46",
"z  c #332649",
"x  c #35284D",
"c  c #373044",
"v  c #383147",
"b  c #39314B",
"n  c #3A304F",
"m  c #3C324D",
"M  c #3F354C",
"N  c #3A2F50",
"B  c #3D2F56",
"V  c #3E2F5A",
"C  c #3B3051",
"Z  c #3C3053",
"A  c #3C3054",
"S  c #3F3159",
"D  c #413748",
"F  c #403551",
"G  c #433556",
"H  c #443755",
"J  c #473950",
"K  c #4B3B54",
"L  c #40315B",
"P  c #44335C",
"I  c #47365E",
"U  c #483958",
"Y  c #4D3C58",
"T  c #4B385F",
"R  c #4F3C5E",
"E  c #533E5F",
"W  c #533E63",
"Q  c #564064",
"!  c #840000",
"~  c #8E0000",
"^  c #910000",
"/  c #990000",
"(  c #9F0000",
")  c #A10000",
"_  c #A50101",
"`  c #A90303",
"'  c #B10606",
"]  c #B50808",
"[  c #AD1010",
"{  c #B51818",
"}  c #B21C1C",
"|  c #B71D1D",
" . c #B82222",
".. c #C30E0E",
"X. c #CE1313",
"o. c #C71F1F",
"O. c #D21515",
"+. c #DB1818",
"@. c #DF1A1A",
"#. c #F72727",
"$. c #F82525",
"%. c #FD2727",
"&. c #FF2828",
"*. c #874B4B",
"=. c #975454",
"-. c #B25454",
";. c #B66565",
":. c #D85252",
">. c #D85454",
",. c #EF8484",
"<. c #F98484",
"1. c #FA8A8A",
"2. c #FF8D8D",
/* pixels */
"J J J J J J J J J J J J J J J J D 1 1 1 1 1 9 J J J J J J J J J J J J J J J J J J J J J J J J J J J J J D 1 1 1 1 1 9 J J J J J ",
"Q Q Q Q Q Q Q Q Q Q Q Q Q Q Q Q Y 1 1 1 1 1 w Q Q Q Q Q Q Q Q Q Q Q Q Q Q Q Q Q Q Q Q Q Q Q Q Q Q Q Q Q Y 1 1 1 1 1 w Q Q Q Q Q ",
"Q Q Q Q W I I I T Q Q Q Q Q Q Q E J D 1 9 J K Q Q Q Q Q Q Q Q Q Q Q Q Q Q Q Q Q W I I I T Q Q Q Q Q Q Q E J D 1 9 J K Q Q Q Q Q ",
"Q Q Q Q W V V V P Q Q Q Q Q Q Q Q Q Y 1 w Q Q Q Q Q Q Q Q Q Q Q Q Q Q Q Q Q Q Q W V V V P Q Q Q Q Q Q Q Q Q Y 1 w Q Q Q Q Q Q Q ",
"W I I I I V V V L I T Q W I T Q Q Q Y 1 w Q Q Q W I I I T Q W I I I I I T Q W I I V V V L I T Q W I T Q Q Q Y 1 w Q Q Q W I T Q ",
"W V V V V V V V V V P Q W V P Q Q Q Y 1 w Q Q Q W V V V P Q W V V V V V P Q W V V V V V V V P Q W V P Q Q Q Y 1 w Q Q Q W V P Q ",
"I V V V V C C C Z V L I I V S H U Q Y 1 w Q W H G V V V L I I V V C Z V L I I V V C C C C C A I I V S H U Q Y 1 w Q W H G V L I ",
"V V V V B b b b n V V V V V B b F Q Y 1 w Q R b n V V V V V V V B b n V V V V V B b b b b b n V V V B b F Q Y 1 w Q R b n V V V ",
"V V V C n b n A A V V V V C n b m H M 1 0 H F b n C Z V V V V C n b n C Z V V V V A A A A A A V V C n b m H M 1 0 H F b n C Z V ",
"V V B b b b n V V V V V B b b b b b c 1 6 b b b b b n V V V B b b b b b n V V V V V V V V V V V B b b b b b c 1 6 b b b b b n V ",
"C C n b b b n C C C C C n b b b b b c 1 6 b b b b b n C C C n b b b b b n C C C C C Z V V V V C n b b b b b c 1 6 b b b b b n C ",
"b b b b b b b b b b b b b b b b b b c 1 6 b b b b b b b b b b b b b b b b b b b b b n V V V B b b b b b b b c 1 6 b b b b b b b ",
"b b b b b b b b b b b b b b b b v 7 6 1 5 7 q b b b b b b b b b b b b b b b b b b b n C C C n b b b b b v 7 6 1 5 7 q b b b b b ",
"b b b b b b b b b b b b b b b b c 1 1 1 1 1 6 b b b b b b b b b b b b b b b b b b b b b b b b b b b b b c 1 1 1 1 1 6 b b b b b ",
"7 7 7 7 7 7 7 7 7 7 7 7 7 7 7 7 6 1 1 1 1 1 5 7 7 7 7 7 7 7 7 7 7 7 7 7 7 7 7 7 7 7 7 7 7 7 7 7 7 7 7 7 6 1 1 1 1 1 5 7 7 7 7 7 ",
"1 1 1 1 1 1 1 1 1 1 1 1 1 1 1 1 1 1 1 1 1 1 1 1 1 1 1 1 1 1 1 1 1 1 1 1 1 1 1 1 1 1 1 1 1 1 1 1 1 1 1 1 1 1 1 1 1 1 1 1 1 1 1 1 ",
"1 1 9 J J J J J J J J J J J J J J J J J J J J J J J J J J J D 1 1 1 1 1 9 J J J J J J J J J J J J J J J J J J J J J J J D 1 1 1 ",
"1 1 w Q Q Q Q Q Q Q Q Q Q Q Q Q Q Q Q Q Q Q Q Q Q Q Q Q Q Q Y 1 1 1 1 1 w Q Q Q Q Q Q Q Q Q Q Q Q Q Q Q Q Q Q Q Q Q Q Q Y 1 1 1 ",
"9 J K Q Q Q W I T Q Q Q Q Q Q Q Q Q Q Q Q Q Q Q W I T Q Q Q E J D 1 9 J K Q Q Q Q Q Q Q Q Q W I T Q Q Q Q Q Q Q Q Q Q Q E J D 1 ",
"w Q Q Q Q Q W V P Q Q Q Q Q Q Q Q Q Q Q Q Q Q Q W V P Q Q Q Q Q Y 1 w Q Q Q Q Q Q Q Q Q Q Q W V P Q Q Q Q Q Q Q Q Q Q Q Q Q Y 1 ",
"w Q Q Q W I I V L I I I T Q W I I I I I T Q W I I V L I T Q Q : Y 1 w Q Q Q W I I I T Q W I I V L I I I T Q W I I I T Q Q Q Y 1 ",
"w Q Q Q W V V V V V V V P Q W V V V V V P Q W V V V V V P Q $ -.> 1 w Q Q Q W V V V P Q W V V V V V V V P Q W V V V P Q Q Q Y 1 ",
"w Q W I I V V V V V V V L I I V V V V V S H G V V V V V L I * -.=.1 w Q W I I V V V L I I V V C Z V V V S H G V V V L I T Q Y 1 ",
"w Q W V V V V V V V V V V V V V V V V V B b n V V V V V V   u -.2.X w Q W V V V V V V V V V B b n V V V B b n V V V V V P Q Y 1 ",
"0 H G V V V V V V V V V V V V C C C Z V V A Z C Z V V V x ~ u -.2.;.0 H G V V V V V V V V C n b n V V V V A Z C Z V V V S H M 1 ",
"6 b n V V V V V V V V V V V B b b b n V V V B b n V V V - ) u -.[ ,.@ b n V V V V V V V B b b b n V V V V V B b n V V V B b c 1 ",
"6 b n C Z V V V V V V V V C n b n A A V V V B b n C Z z i ) u -.) :.*.l n C Z V V C C C n b n A A V V C Z V V A A V V C n b c 1 ",
"6 b b b n V V V V V V V B b b b n V V V V V B b b b n , ' _ u -.) | 1.3 b b n V B b b b b b n V V V B b n V V V V V B b b b c 1 ",
"6 b b b n C Z V V C C C n b b b n C Z V V C n b b b l r &.' u -.) ) 2.f l b n C n b b b b b n C C C n b n C Z V V C n b b b c 1 ",
"6 b b b b b n V B b b b b b b b b b n V B b b b b b ; ) &.&.u -.) | 2.2.2 b b b b b b b b b b b b b b b b b n V B b b b b b c 1 ",
"5 7 q b b b n C n b b b b b b b b b n C n b b b b b y $.&.&.u -.) | 2.2.g b b b b b b b b b b b b b b b b b n C n b b b v 7 6 1 ",
"1 1 6 b b b b b b b b b b b b b b b b b b b b b b $ ) +.&.&.u -.) 2.2.2.2.; b b b b b b b b b b b b b b b b b b b b b b c 1 1 1 ",
"1 1 5 7 7 7 7 7 7 7 7 7 7 7 7 7 7 7 7 7 7 7 7 7 7 s ) ] +.{ t -. .>.>.<.2.*.7 7 7 7 7 7 7 7 7 7 7 7 7 7 7 7 7 7 7 7 7 7 6 1 1 1 ",
"1 1 1 1 1 1 1 1 1 1 1 1 1 1 1 1 1 1 1 1 1 1 1 1 1 | &.O.) ) ) >.d e r i / a 1 1 1 1 1 1 1 1 1 1 1 1 1 1 1 1 1 1 1 1 1 1 1 1 1 1 ",
"J J J J J J J J J J J J J J J J J J J J D 1 1 1 1 } X...) ) ) >.d e e ^ p y J J J J J J J J J J J J D 1 1 1 1 1 9 J J J J J J J ",
"Q Q Q Q Q Q Q Q Q Q Q Q Q Q Q Q Q Q Q Q Y 1 1 1 1 o ` @.) ) ) -.d e e e / < Q Q Q Q Q Q Q Q Q Q Q Q Y 1 1 1 1 1 w Q Q Q Q Q Q Q ",
"Q Q Q Q Q Q W I T Q Q Q Q Q Q Q Q Q Q Q E J D 1 9 J y ) ) ) $.-.d ) e e O I T Q Q Q Q Q W I T Q Q Q E J D 1 9 J K Q Q Q Q Q Q Q ",
"Q Q Q Q Q Q W V P Q Q Q Q Q Q Q Q Q Q Q Q Q Y 1 w Q < ) ) X.&.-.d ) a e h V P Q Q Q Q Q W V P Q Q Q Q Q Y 1 w Q Q Q Q Q Q Q Q Q ",
"W I I I I I I V L I I I T Q W I I I T Q Q Q Y 1 w Q 8 ! _ %.&.-.d ) ( * j V L I T Q W I I V L I T Q Q Q Y 1 w Q Q Q W I I I T Q ",
"W V V V V V V V V V V V P Q W V V V P Q Q Q Y 1 w Q Q = ' &.&.-.d ) ( . V V V V P Q W V V V V V P Q Q Q Y 1 w Q Q Q W V V V P Q ",
"I V V V V V V C Z V V C A I I V V V S H U Q Y 1 w Q W 4 $.&.&.-.d ) ( x V V V V S H G V V V V V S H U Q Y 1 w Q W H G V V V L I ",
"V V V V V V B b n V B b n V V V V V B b F Q Y 1 w Q R b & &.&.-.d )   V V V V V B b n V V V V V B b F Q Y 1 w Q R b n V V V V V ",
"V V V V V C n b n V V A A V V V V C n b m H M 1 0 H F b k #.&.-.) d C C Z V V V V A A V V V V C n b m H M 1 0 H F b n C Z V V V ",
"V V V V B b b b n V V V V V V V B b b b b b c 1 6 b b b b   &.-.) + b b n V V V V V V V V V B b b b b b c 1 6 b b b b b n V V V ",
"V C C C n b b b n C C C Z V V C n b b b b b c 1 6 b b b b b o.-.i b b b n C C C C C Z V V C n b b b b b c 1 6 b b b b b n C Z V ",
"B b b b b b b b b b b b n V B b b b b b b b c 1 6 b b b b b # >.% b b b b b b b b b n V B b b b b b b b c 1 6 b b b b b b b n V ",
"n b b b b b b b b b b b n C n b b b b b v 7 6 1 5 7 q b b b b 4 b b b b b b b b b b n C n b b b b b v 7 6 1 5 7 q b b b b b n C ",
"b b b b b b b b b b b b b b b b b b b b c 1 1 1 1 1 6 b b b b b b b b b b b b b b b b b b b b b b b c 1 1 1 1 1 6 b b b b b b b ",
"7 7 7 7 7 7 7 7 7 7 7 7 7 7 7 7 7 7 7 7 6 1 1 1 1 1 5 7 7 7 7 7 7 7 7 7 7 7 7 7 7 7 7 7 7 7 7 7 7 7 6 1 1 1 1 1 5 7 7 7 7 7 7 7 ",
"1 1 1 1 1 1 1 1 1 1 1 1 1 1 1 1 1 1 1 1 1 1 1 1 1 1 1 1 1 1 1 1 1 1 1 1 1 1 1 1 1 1 1 1 1 1 1 1 1 1 1 1 1 1 1 1 1 1 1 1 1 1 1 1 ",
"J J J J D 1 1 1 1 1 9 J J J J J J J J J J J J J J J J J J J J J J J D 1 1 1 1 1 9 J J J J J J J J J J J J J J J J J J J J J J J ",
"Q Q Q Q Y 1 1 1 1 1 w Q Q Q Q Q Q Q Q Q Q Q Q Q Q Q Q Q Q Q Q Q Q Q Y 1 1 1 1 1 w Q Q Q Q Q Q Q Q Q Q Q Q Q Q Q Q Q Q Q Q Q Q Q ",
"Q Q Q Q E J D 1 9 J K Q Q Q Q Q Q Q Q Q W I T Q Q Q Q Q Q Q Q Q Q Q E J D 1 9 J K Q Q Q Q Q Q Q Q Q W I T Q Q Q Q Q W I T Q Q Q ",
"Q Q Q Q Q Q Y 1 w Q Q Q Q Q Q Q Q Q Q Q W V P Q Q Q Q Q Q Q Q Q Q Q Q Q Y 1 w Q Q Q Q Q Q Q Q Q Q Q W V P Q Q Q Q Q W V P Q Q Q ",
"I I I I T Q Y 1 w Q W I I I T Q W I I I I V L I T Q W I I I I I T Q Q Q Y 1 w Q Q Q W I I I T Q W I I V L I T Q W I I V L I I I ",
"V V V V P Q Y 1 w Q W V V V P Q W V V V V V V V P Q W V V V V V P Q Q Q Y 1 w Q Q Q W V V V P Q W V V V V V P Q W V V V V V V V ",
"V C Z V L I F 1 0 I I V V V L I I V V V V C Z V L I I V V V V C Z H U Q Y 1 w Q W H G C Z V L I I V V V V V L I I V V V V V V V ",
"B b n V V V N 1 7 V V V V V V V V V V V B b n V V V V V V V B b b b F Q Y 1 w Q R b b b n V V V V V V V V V V V V V V V V V V V ",
"n b n C C C b 1 6 C C C C C C C C C C C n b n C C C C C C C n b b b m H M 1 0 H F b b b n C C C C C Z V V V V C C C C C C C C C ",
"b b b b b b c 1 6 b b b b b b b b b b b b b b b b b b b b b b b b b b b c 1 6 b b b b b b b b b b b n V V V B b b b b b b b b b ",
"b b b b v 7 6 1 5 7 q b b b b b b b b b b b b b b b b b b b b b b b v 7 6 1 5 7 q b b b b b b b b b n C C C n b b b b b b b b b ",
"b b b b c 1 1 1 1 1 6 b b b b b b b b b b b b b b b b b b b b b b b c 1 1 1 1 1 6 b b b b b b b b b b b b b b b b b b b b b b b ",
"7 7 7 7 6 1 1 1 1 1 5 7 7 7 7 7 7 7 7 7 7 7 7 7 7 7 7 7 7 7 7 7 7 7 6 1 1 1 1 1 5 7 7 7 7 7 7 7 7 7 7 7 7 7 7 7 7 7 7 7 7 7 7 7 ",
"1 1 1 1 1 1 1 1 1 1 1 1 1 1 1 1 1 1 1 1 1 1 1 1 1 1 1 1 1 1 1 1 1 1 1 1 1 1 1 1 1 1 1 1 1 1 1 1 1 1 1 1 1 1 1 1 1 1 1 1 1 1 1 1 "
};
