/* XPM */
static char *ec648e287a034c14eec5e62946332a49IbCLEujVE4Sc6rhc[] = {
/* columns rows colors chars-per-pixel */
"64 64 199 2 ",
"   c #180F25",
".  c #171025",
"X  c #191126",
"o  c #1D142C",
"O  c #1F1431",
"+  c #1F1E34",
"@  c #211827",
"#  c #22172F",
"$  c #231C2C",
"%  c #211633",
"&  c #231A34",
"*  c #241738",
"=  c #261B3B",
"-  c #291D3D",
";  c #1D2A36",
":  c #1E2E38",
">  c #27232C",
",  c #2F2E2F",
"<  c #2A2634",
"1  c #23223B",
"2  c #2B223B",
"3  c #302537",
"4  c #312F35",
"5  c #332F3A",
"6  c #353137",
"7  c #3D3436",
"8  c #34303B",
"9  c #38323B",
"0  c #433C26",
"q  c #453B3F",
"w  c #2F6124",
"e  c #366B2A",
"r  c #534B1C",
"t  c #5D5117",
"y  c #5A5018",
"u  c #645916",
"i  c #554B27",
"p  c #4D4330",
"a  c #47433D",
"s  c #564B38",
"d  c #5F543D",
"f  c #64593E",
"g  c #73692C",
"h  c #7E712B",
"j  c #2B1C42",
"k  c #301F4B",
"l  c #2D2144",
"z  c #2E2248",
"x  c #322543",
"c  c #342B44",
"v  c #3A2A47",
"b  c #31244C",
"n  c #352A4C",
"m  c #3A2C4B",
"M  c #233542",
"N  c #283D49",
"B  c #373044",
"V  c #3A3246",
"C  c #39314B",
"Z  c #352652",
"A  c #352A53",
"S  c #3A2D56",
"D  c #3B2F5A",
"F  c #3B3052",
"G  c #3D305E",
"H  c #3F2B62",
"J  c #3E3161",
"K  c #413648",
"L  c #493C4A",
"P  c #412F57",
"I  c #443554",
"U  c #473950",
"Y  c #4A3B54",
"T  c #45355D",
"R  c #4A3759",
"E  c #4C3A5B",
"W  c #533E5F",
"Q  c #432D68",
"!  c #423265",
"~  c #46336A",
"^  c #493769",
"/  c #523D62",
"(  c #4B3573",
")  c #4D3775",
"_  c #4E3879",
"`  c #563C7A",
"'  c #513A7D",
"]  c #2E464D",
"[  c #2E4757",
"{  c #334E5A",
"}  c #385568",
"|  c #3A5A68",
" . c #4E4F4A",
".. c #675D42",
"X. c #6F6442",
"o. c #6A6749",
"O. c #78764C",
"+. c #6E6854",
"@. c #564064",
"#. c #59416E",
"$. c #5E477C",
"%. c #6A5672",
"&. c #466E72",
"*. c #82752E",
"=. c #877B35",
"-. c #897F4E",
";. c #8C7875",
":. c #4B993B",
">. c #6B9450",
",. c #5FB044",
"<. c #71AB4D",
"1. c #52837E",
"2. c #6BC457",
"3. c #8E833D",
"4. c #948A47",
"5. c #849C45",
"6. c #9D9449",
"7. c #8C8452",
"8. c #968B53",
"9. c #918858",
"0. c #9D9458",
"q. c #A59B57",
"w. c #AA9C53",
"e. c #83BD57",
"r. c #ADA154",
"t. c #ACA357",
"y. c #B5A75A",
"u. c #B6AA5D",
"i. c #818060",
"p. c #988C6F",
"a. c #A18E6D",
"s. c #AA9965",
"d. c #96B367",
"f. c #B7AE69",
"g. c #BEB263",
"h. c #BBB568",
"j. c #B0AB75",
"k. c #C1B667",
"l. c #C1B66B",
"z. c #C5BC6B",
"x. c #C3BD76",
"c. c #8CD174",
"v. c #A2CB70",
"b. c #ACDE78",
"n. c #CAC372",
"m. c #CCC579",
"M. c #D2CB79",
"N. c #D5D07D",
"B. c #553B84",
"V. c #583C84",
"C. c #5A3E8B",
"Z. c #5E3F92",
"A. c #5D4183",
"S. c #64478B",
"D. c #785D87",
"F. c #65429C",
"G. c #7B5C94",
"H. c #507E82",
"J. c #6744A0",
"K. c #6844A1",
"L. c #6A45A5",
"P. c #886C87",
"I. c #81638E",
"U. c #568B85",
"Y. c #5A918B",
"T. c #B6B28B",
"R. c #AAA697",
"E. c #9DD880",
"W. c #AFD28C",
"Q. c #BCE586",
"!. c #CEC584",
"~. c #C7C988",
"^. c #DBD985",
"/. c #C9C796",
"(. c #D0CE9D",
"). c #DBDE93",
"_. c #D7D49A",
"`. c #E0DE89",
"'. c #CAEB8F",
"]. c #DFE396",
"[. c #E4E38D",
"{. c #E6E692",
"}. c #EAEA93",
"|. c #E7EA9A",
" X c #EFF29A",
".X c #F2F59C",
"XX c #F5F89F",
"oX c #D6D4A4",
"OX c #D2EEA4",
"+X c #E4E3AB",
"@X c #F5FBA1",
"#X c #FAFFA5",
"$X c #FAFFAA",
"%X c #FBFFB4",
"&X c #F7FAB9",
"*X c #FBFFBA",
"=X c #FAFDC7",
"-X c #FCFFCB",
";X c #FDFFD4",
/* pixels */
"U U U U U U U U U U U U U U U U R C., , , , 6 U U U U U U U U U U U U U U U U U U U U U U U ` ` U U U U K , , , , , 6 U U U U U ",
"@.@.@.@.@.@.@.@.@.@.@.@.@.@.@.R x K.V.4 , , 9 @.@.@.@.@.@.@.@.@.@.@.@.@.@.@.@.@.@.@.@.@.@.A.F._ x @.@.@.E , , , , , 9 @.@.@.@.@.",
"@.@.@.@./ T T T E @.@.@.@.@.@.I % _ L.` V U R @.@.@.@.@.@.@.@.@.@.@.@.@.@.@.@.@./ T T T ` F.C.Z - @.@.@.W U K , 6 U R @.@.@.@.@.",
"@.@.@.@./ D D D T @.@.@.@.@.R x z G _ K.` #.@.@.@.@.@.@.@.@.@.@.@.@.@.@.@.@.@.@./ D D ' F.C.~ A l v @.@.@.@.E , 9 @.@.@.@.@.@.@.",
"/ T T T T D D D T T E @./ T n % D D D F.L.S.#.@./ T T T E @./ T T T T T E @./ T T D ' F.L._ D D z % E @.@.@.E , 9 @.@.@./ T E @.",
"/ D D D D D D D D D T @./ D x % D D D B.J.L.S.#./ D D D T @./ D D D D D T @./ D D ( F.L.Z.~ D D z o T @.@.@.E , 9 @.@.@./ D T @.",
"T D D D D F F F F D T T T A 2 = D D D D B.F.L.A.^ D D D T T T D D F F D T T T P ( K.L.F.~ D D D b % n I R @.E , 9 @./ I I D T T ",
"D D D D S C C C C D D D D l o z D D D D D Z.L.L.V.~ ~ ~ ~ ~ ~ ~ ~ T ! ~ ~ ~ ~ ( L.L.L.~ D D D D A = o C I @.E , 9 @.E C C D D D ",
"D D D F C C C F F D D D D 2 o z D D D D D C.K.L.L.L.L.L.L.L.L.L.L.L.L.L.L.L.L.L.L.L.F.~ D D D D A = X C C I C , 6 I I C C F F D ",
"D D S C C C C D D D D D S 2 o z D D D D D D C.L.L.K.K.K.K.K.K.K.K.K.K.K.K.K.K.K.L.L.! D D D D D A = X C C C B , 4 C C C C C C D ",
"F F C C C C C F F F F F C 2 o z D D D D D D C.L.B.G G G G G G G G G G G G G G ! L.L.! D D D D D A = X C C C B , 4 C C C C C C F ",
"C C C C C C C C C C C C C 2 o z D D D j S C._ ! J D D D D D D D D D D D D D D D ! ! Z.~ D D D D A = X C C C B , 4 C C C C C C C ",
"C C C C C C C C C C C C C 2 o j b D z B.J ! J D D D D D D D D D D D D D D D D D D D ~ G b A D D A = X C V 5 4 , 4 5 8 C C C C C ",
"C C C C C C C C C C C C C 2 o j j b B.( G D D D D D D D D D D D D D D D D D D D D D D D ( H A A z = X C B , , , , , 4 C C C C C ",
"5 5 5 5 5 5 5 5 5 5 5 5 5 > o j j k L.J D D D D D D D D D D D D D D D D D D D D D D D D ( ) Q z j = X 5 4 , , , , , 4 5 5 5 5 5 ",
", , , , , , , , , , , , , > $ * k ( B.G D D D D D D ! ' ' ' ' ' ' ' ' ' ' ( D D D D D D D B.( j = % > , , , , , , , , , , , , , ",
", , 6 U U U U U U U U U U U c X j B.D D D D D D ! _ $.P.P.P.P.P.P.P.P.P.P.D._ ( D D D D D ( ) Z O $ U U U U U U U U U U K , , , ",
", , 9 @.@.@.@.@.@.@.@.@.@.@.m X = D D D D D ! ( $.I.;.y.y.y.y.y.y.y.y.y.y.s.I.D.( ( G D D D ( Q o & @.@.@.@.@.@.@.@.@.@.E , , , ",
"6 U R @.@.@./ T E @.@.@.@.W v = D D D D D ! S.G.;.y.y.y.y.y.y.y.y.y.y.y.y.y.y.s.G.G.) G D D D D b - R @.@.@.@.@.@.@.@.@.W U K , ",
"9 @.@.@.@.@./ D T @.@.@.@.v = D D D D D J S.p.y.y.y.u.g.w.w.g.g.g.g.y.w.r.y.y.y.y.y.G.) G D D D D n o @.@.@.@.@.@.@.@.@.@.@.E , ",
"9 @.@.@./ T T D T T T T T v = D D D D D F.a.y.y.y.u.n.^.u u  X#X#X#Xr.u =.u.u.y.y.y.y.G.( D D D D n o T E @./ T T T E @.@.@.E , ",
"9 @.@.@./ D D D D D D D 2 - D D D D D D F.a.y.y.N.@X@X#X.X.X#X#X#X#X@X.X.X@X}.y.y.y.y.G.( D D D D D A X T @./ D D D T @.@.@.E , ",
"9 @./ T T D D D D D D - l A D D D D D D F.a.y.N.@X#X#X#X#X#X#X#X#X#X#X#X#X#X@X X Xu.y.G.( D D D D D D A o C I D D D T T E @.E , ",
"9 @./ D D D D D D D - l A D D D D D G 9.a.^.}.u.=.5.<.>.=X#X#X#X#X#X#X%XW.>.e.=.3.[.}.j.L z D D D D D D n % v D D D D D T @.E , ",
"6 I I D D D D D D - * j A D D D D S & q.^.XX*X+Xd.,.:.e E.=X#X#X#X#X*XOX>.e ,.<./.=X$X}.q.a z D D D D D b = & c F D D D T I C , ",
"4 C C D D D D D D b & O - b A D D A X q. X#X%X*XOXc.:.w 2.E.@X#X#X#X'.c.:.e 2.OX*X*X$X#Xn.s - D D S b z % O - c C D D D S C B , ",
"4 C C F F D D D D D z - = % = b b b % f x..X#X#X%XOXv.d.b.b.@X*X*X$X'.b.v.d.Q.*X#X#X#X`.7.7 j b b z % % - - A F F D D F C C V , ",
"4 C C C C D D D D D D D x & * * * j j % ..x..X#X#X#X#X#X#X#X#X~.T.|.#X#X#X#X#X#X#X#X[.7.9 = j = * * = & m D D D D D S C C C V , ",
"4 C C C C F F D D F F F C C c % % * * * X f x..X#X#X#X#X#X#X#Xq.4.^.#X#X#X#X#X#X#X[.8., % * * & % = C C C F F D D F C C C C B , ",
"4 C C C C C C D S C C C C C C C c o o % % o ..j.~.).#X#X#X#X#X#X#X#X#X#X#X#X X~.~.8.3 o o o o 2 C C C C C C C D S C C C C C B , ",
"4 5 8 C C C C F C C C C C C C C C C C F C C & o o o.).).).).).).).).).).).).j.o o o c C C C C C C C C C C C C F C C C C V 5 4 , ",
", , 4 C C C C C C C C C C C C C C C C C C C C C C 2 X X . X X . . X X X . X o C C C C C C C C C C C C C C C C C C C C C B , , , ",
", , 4 5 5 5 5 5 5 5 5 5 5 5 5 5 5 5 5 5 5 5 5 5 > o j - : N N : ; M N M 1 j = X 5 5 5 5 5 5 5 5 5 5 5 5 5 5 5 5 5 5 5 5 4 , , , ",
", , , , , , , , , , , , , , , , , , , , , , , $ % - - N U.| ] : : N { &.&.1 j = X , , , , , , , , , , , , , , , , , , , , , , , ",
"U U U U U U U U U U U U U U U U U U U U K , $ % - 1 ] 1.Y.| : O.8. .[ &.U.&.1 j = # K U U U U U U U K , , , , , 6 U U U U U U U ",
"@.@.@.@.@.@.@.@.@.@.@.@.@.@.@.@.@.@.@.@.E $ % = j 1 ] Y.&.[ : 0.y. .N | H.&.; j j * = R @.@.@.@.@.@.E , , , , , 9 @.@.@.@.@.@.@.",
"@.@.@.@.@.@./ T E @.@.@.@.@.@.@.@.@.@.@.W & * j j 1 N | [ M O.r.y.7. .N } { ; j j j X I / T E @.@.@.W Y R.R. .U R @.@.@.@.@.@.@.",
"@.@.@.@.@.@./ D T @.@.@.@.@.@.@.@.@.@.@.m l z b z - 1 M N o.r.M.^.k.7. .M M 1 j b b l x I D T @.@.%.R.R.&X*XT.%.@.@.@.@.@.@.@.@.",
"/ T T T T T T D T T T T E @./ T T T E @.# b D D A z = < o.y.m.XX#X^.l.7.a + j b D D D O n D T T @.p.*X#X#X[.).;.@.@./ T T T E @.",
"/ D D D D D D D D D D D T @./ D D D T I - A D D D b 3 d u.n.@X#X#X#X`.k.-.7 - D D D D - l A D E ;.N.#X#X[.8.7.%.@.@./ D D D T @.",
"T D D D D D D F F D D F F T T D D D G X A D D D A c d u.n.#X#X#X#X#X#X`.g.7.9 n D D D D & l I +.z.}.{._.0.7 9 @./ I I D D D T T ",
"D D D D D D S C C D S C C D D D D D A o A D D D l s u.n.#X#X#X#X#X#X#X#X[.g.8.X D D D D = x s =.r.w.8.@.E , 9 @.W C C D D D D D ",
"D D D D D F C C C D D F F D D D D m   A D D D D l s n.#X#X#X#X#X#X#X#X#X#X{.8.X D D D D D p =.y.4.i C I K , 6 I I C C F F D D D ",
"D D D D S C C C C D D D D D D D S c   A D D D D l +.#X#X#X#X#X#X#X#X#X#X#X#X~.X D D D D D = f 3.i C C C B , 4 C C C C C C D D D ",
"D F F F C C C C C F F F F D D F C c   A D D G j +.|.}.n.#X#X#X#X#X#X#X#X[.M.@X~.o S D D D = 0 i V C C C B , 4 C C C C C C F F D ",
"S C C C C C C C C C C C C D S C c o = A D D D - i.#X[.l.#X#X-Xm.z.+X%X#X^.n.#X].X S D D D z $ 3 C C C C B , 4 C C C C C C C C D ",
"C C C C C C C C C C C C C F C C c X j D D D D - i.#X[.r.6.#X;Xl.y.+X*Xn.6.n.#X].X S D D D b % & C C V 5 4 , 4 5 8 C C C C C C F ",
"C C C C C C C C C C C C C C C c & * j D D D D - i.#X.Xn.g =X;X4.*.(.-Xf.4.{.#X].X S D D D b = & 2 C B , , , , , 4 C C C C C C C ",
"5 5 5 5 5 5 5 5 5 5 5 5 5 5 < & * j b D D D D - i.#X#X{.3.j.-Xh u /.(.0.g.#X#X].. S D D D A z = % > 4 , , , , , 4 5 5 5 5 5 5 5 ",
", , , , , , , , , , , , , > $ = b b D D D D b q s.#X#X.Xn.=.j.g u 0.0.r.[.#X#X|.s l A D D D A z = # > , , , , , , , , , , , , , ",
"U U U U K , , , , , 6 U V 2 - b D D D A D D & X.N.#X#X#X@Xn.*.h h h r.[.#X#X#X.Xy.@ A D A S D A z j % c U U U U U U U U U U U U ",
"@.@.@.@.E , , , , , 4 I x z D D D D D z A D & X.N.#X#X#X#X#Xn.z.z.z.[.#X#X#X#X.Xy.@ A D b A D D D A j % I I / @.@.@.@.@.@.@.@.@.",
"@.@.@.@.W U K , 4 K & o z D D S D D D D D D & X.N.#X#X#X#X#X#X#X#X#X#X#X#X#X#X.Xy.@ A D D D D D D A D D o o P E / @./ T E @.@.@.",
"@.@.@.@.@.@.E , X X b D D D A z D D D D D D & X.N.#X#X#X#X#X#X#X#X#X#X#X#X#X#X.Xy.@ A D D D D D A z D D D D % X v / / D T @.@.@.",
"T T T T E @.U . A D D D D D D D D S j D D D & X.N.#X#X#X#X#X#X#X#X#X#X#X#X#X#X.Xy.@ A D D b b D D D D D D D D D = l T D T T T T ",
"D D D D T E o A D D D D b b D D D D S D D D & X.N.#X#X#X#X#X#X#X#X#X#X#X#X#X#X.Xy.2 A D D D D D D D S j D D D D S - - D D D D D ",
"D F F D T T v o o A D b b S D D A z D D G G z 3 p.#X#X#X#X#X-X-X-X-X%X#X#X#X#X{.4 j S D D D n b D D D A z S D - o - A D D D D D ",
"S C C D D D m > < = & = j Z D A z j D D D D b O i.#X#X#X#X#X!.m.m.m.{.#X#X#X#X].  - S D D D b j b D D z j & & l b A D D D D D D ",
"C C C F F F C , 4 l l * o = b z j j z z b b j O o.`.#X#X@Xm.=.*.*.*.r.[.#X#X.Xh.  - z b b b z j j z z o o l z m F F F F F F F F ",
"C C C C C C B , 4 C C 2 2 * % % * j j j j j j O f k.`.#X X=.p p p p g h.#X Xm.q.  - j j j j j = % O % l l S S C C C C C C C C C ",
"C C C C V 5 4 , 4 5 8 C C c & & & * * * * * % * s 6.k.^.M.u V C C C i 6.^.M.r.=.$ * * * * * % * & & 2 F F F C C C C C C C C C C ",
"C C C C B , , , , , 4 C C C C C c % % % % & % 2 p 3.!.!.x.u V C C C i 4.!.!.f.t 4 & % % % % % 2 C C C C C C C C C C C C C C C C ",
"5 5 5 5 4 , , , , , 4 5 5 5 5 5 5 5 5 5 5 5 5 8 0 -.oXoX/.r 6 5 5 5 0 9.oXoXT.r 4 5 5 5 5 5 5 5 5 5 5 5 5 5 5 5 5 5 5 5 5 5 5 5 ",
", , , , , , , , , , , , , , , , , , , , , , , , , 7 y y r , , , , , , 0 y y r , , , , , , , , , , , , , , , , , , , , , , , , , "
};
