/* XPM */
static char *f870a9b5a702442cfb8a04e4e487f242na6fu98I8a8O9iWd[] = {
/* columns rows colors chars-per-pixel */
"64 64 82 1 ",
"  c #2F2E2F",
". c #302E33",
"X c #312E35",
"o c #342E3E",
"O c #343036",
"+ c #362E42",
"@ c #392F4B",
"# c #392F4D",
"$ c #383041",
"% c #3D3442",
"& c #3F3644",
"* c #3B304C",
"= c #3E2F5A",
"- c #3F3250",
"; c #3F305B",
": c #44384C",
"> c #493A4C",
", c #483A51",
"< c #4E3D51",
"1 c #4D3C55",
"2 c #42325B",
"3 c #42315D",
"4 c #44335E",
"5 c #47355E",
"6 c #49375F",
"7 c #4B385F",
"8 c #503D5C",
"9 c #463460",
"0 c #493562",
"q c #4B3861",
"w c #4D3A60",
"e c #523D63",
"r c #543E63",
"t c #533D65",
"y c #573D6C",
"u c #514053",
"i c #5F515B",
"p c #62555D",
"a c #564064",
"s c #5E4563",
"d c #584166",
"f c #5A4268",
"g c #5D436A",
"h c #5C406F",
"j c #5E4171",
"k c #624668",
"l c #66486C",
"z c #654E6F",
"x c #6C4F6F",
"c c #644771",
"v c #674873",
"b c #6A4A73",
"n c #6B4A77",
"m c #6E4E79",
"M c #6C497C",
"N c #704B7E",
"B c #724E7D",
"V c #744F7F",
"C c #74547C",
"Z c #866E7F",
"A c #775081",
"S c #785180",
"D c #7D5385",
"F c #7C5785",
"G c #7F5A86",
"H c #7E5488",
"J c #80558A",
"K c #83568C",
"L c #85578E",
"P c #885B90",
"I c #8A5E91",
"U c #89658A",
"Y c #8B7482",
"T c #8D6193",
"R c #996F9A",
"E c #987693",
"W c #9C729C",
"Q c #A98B9D",
"! c #A780A2",
"~ c #AA83A4",
"^ c #B691AB",
"/ c #BE9BB0",
/* pixels */
"sSEQQQQQQQQQQQQQQQQQQQUS> sSEQQQQQQQQQQQQQQQQQQQQQQQQQQQUS> sSEQ",
"lL~///////////////////RL< lL~///////////////////////////RL< lL~/",
"Z^WTTTTTTTTTTTTTTTTTTT!^i Z^WTTTTTTTTTCzGTTTTTCzGTTTTTTT!^i Z^WT",
"Y/RLLLLLLLLLLLLLLLLLLL~/p Y/RLLLLLLLLLvaVLLLLLvaVLLLLLLL~/p Y/RL",
"xTPLngggggggALngggggALITu xTPLngggALngdafgALngdafgggggggFTu xTmg",
"lLLLvaaaaaaaVLvaaaaaVLLL< lLLLvaaaVLvaaaaaVLvaaaaaaaaaaaVL< lLva",
"lLngdaaaaaaafgdaaa6290NL< lLj042wafgdaaaaafgdaaaaaaa62wafg& 1gda",
"lLvaaaaaaaaaaaaaaa5===ML< lLy===waaaaaaaaaaaaaaaaaaa5=waaa% ,aaa",
"1gBHcaaa6222222222;===40$ -03===222222waaa6222222222;=2222o *222",
",aVLvaaa5===============o @===========waaa5===============o @===",
"*2tgda62;=============+X. .X#=========2222;=============+X. .X#=",
"@=waaa5===============o     @===========================o     @=",
".XOOOOXXXXXXXXXXXXXXXX.     .XXXXXXXXXXXXXXXXXXXXXXXXXXX.     .X",
"                                                                ",
":8bSSSSSSSSSSSSSSSSSSSSSSSSSSSSSSSSSSSSS>     sSSSSSSSSSSSSSSSSS",
",aVLLLLLLLLLLLLLLLLLLLLLLLLLLLLLLLLLLLLL<     lLLLLLLLLLLLLLLLLL",
"kHKLLLLLLLLLLLLLLLLLLLLLLLLLngggALLLLLLLDS> sSJLLLLLLLLLngggALLL",
"lLLLLLLLLLLLLLLLLLLLLLLLLLLLvaaaVLLLLLLLLL< lLLLLLLLLLLLvaaaVLLL",
"lLLLngggggALngggALngggggALngdaaafgALngALLL< lLLLngALngggdaaafgAL",
"lLLLvaaaaaVLvaaaVLvaaaaaVLvaaaaaaaVLvaVLLL< lLLLvaVLvaaaaaaaaaVL",
"lLngBHcaaafgdaaafgda62wafgda622222tgdaw0NL< lLj0eafgdaaa6222wafg",
"lLvaVLvaaaaaaaaaaaaa5=waaaaa5=====waaa5=ML< lLy=waaaaaaa5===waaa",
"lLvafgdaaaaa62waaa62;=22waaareeeeera62;=40$ -03=22waaa62;=7eraaa",
"lLvaaaaaaaaa5=waaa5=====waaaaaaaaaaa5=====o @=====waaa5===waaaaa",
"1gBHcaaaaa62;=2222;=====222222waaa62;=====o @=====2222;===222222",
",aVLvaaaaa5===================waaa5=======o @===================",
"*2tgda6222;===================2222;=====+X. .X#=================",
"@=waaa5=================================o     @=================",
".XOOOOXXXXXXXXXXXXXXXXXXXXXXXXXXXXXXXXXX.     .XXXXXXXXXXXXXXXXX",
"                                                                ",
":8bSSSSSSSSSSSSSSS>     sSSSSSSSSSSSSSSSSSSSSSSS>     sSSSSSSSSS",
",aVLLLLLLLLLLLLLLL<     lLLLLLLLLLLLLLLLLLLLLLLL<     lLLLLLLLLL",
"kHKLLLLLLLLLngALLLDS> sSJLLLLLLLLLngALLLLLLLLLLLDS> sSJLLLngALLL",
"lLLLLLLLLLLLvaVLLLLL< lLLLLLLLLLLLvaVLLLLLLLLLLLLL< lLLLLLvaVLLL",
"lLLLLLngALngdafgALLL< lLLLngggALngdafgggALngggALLL< lLLLngdafggg",
"lLLLLLvaVLvaaaaaVLLL< lLLLvaaaVLvaaaaaaaVLvaaaVLLL< lLLLvaaaaaaa",
"lLLLngdaw0eaaaaafgAL< lLngdaaafgda62waaaw0eaaafgAL< lLngda62waaa",
"lLLLvaaa5=waaaaaaaVL< lLvaaaaaaaaa5=waaa5=waaaaaVL< lLvaaa5=waaa",
"lLngBHcare62waaaaaw0$ -0eaaaaaaa62;=waaare62waaaw0$ -0eaaare62wa",
"lLvaVLvaaa5=waaaaa5=o @=waaaaaaa5===waaaaa5=waaa5=o @=waaaaa5=wa",
"lLvafgdaaa5=22wa62;=o @=22wa6222;=7era62warera62;=o @=22waaarera",
"lLvaaaaaaa5===wa5===o @===wa5=====waaa5=waaaaa5===o @===waaaaaaa",
"1gBHcaaa62;===22;===o @===22;=====2222;=22wa62;===o @===22wa6222",
",aVLvaaa5===========o @===================wa5=====o @=====wa5===",
"*2tgq222;=========+X. .X#=================22;===+X. .X#===22;===",
"@=wa5=============o     @=======================o     @=========",
".XOOXXXXXXXXXXXXXX.     .XXXXXXXXXXXXXXXXXXXXXXX.     .XXXXXXXXX",
"                                                                ",
":8bSSSSSSSSSSSSSSSSSSSSSSSSSSSSSSSSSSS>     sSSSSSSSSSSSSSSSSSSS",
",aVLLLLLLLLLLLLLLLLLLLLLLLLLLLLLLLLLLL<     lLLLLLLLLLLLLLLLLLLL",
"kHKLLLngALLLLLLLLLLLLLLLngALLLLLngALLLDS> sSJLLLLLLLLLLLLLngALLL",
"lLLLLLvaVLLLLLLLLLLLLLLLvaVLLLLLvaVLLLLL< lLLLLLLLLLLLLLLLvaVLLL",
"lLLLLLJHngALLLLLngggALngdafgALngdafgALLL< lLLLngggALngggggdafggg",
"lLLLLLLLvaVLLLLLvaaaVLvaaaaaVLvaaaaaVLLL< lLLLvaaaVLvaaaaaaaaaaa",
"lLLLngggBHh0NLj0eaaafgdaaaaaw0eaaaaaw0NL< lLj0eaaafgdaaaaa62wa62",
"lLLLvaaaVLy=MLy=waaaaaaaaaaa5=waaaaa5=ML< lLy=waaaaaaaaaaa5=wa5=",
"lLngdaaafg0=403=22wa6222waaareraaa62;=40$ -03=22waaaaaaa62;=ware",
"lLvaaaaaaa5=======wa5===waaaaaaaaa5=====o @=====waaaaaaa5===waaa",
"1gBHcaaa62;=======22;===222222wa62;=====o @=====22wa6222;===2222",
",aVLvaaa5=====================wa5=======o @=======wa5===========",
"*2tgq222;=====================22;=====+X. .X#=====22;===========",
"@=wa5=================================o     @===================",
".XOOXXXXXXXXXXXXXXXXXXXXXXXXXXXXXXXXXX.     .XXXXXXXXXXXXXXXXXXX",
"                                                                "
};
